HIERARCHY
ROOT joint_Root
{
	OFFSET 0.0 0.0 0.0
	CHANNELS 6 Xposition Yposition Zposition Zrotation Xrotation Yrotation 
	JOINT Hips
	{
		OFFSET -0.726466 93.3139 -2.00062
		CHANNELS 6 Xposition Yposition Zposition Zrotation Xrotation Yrotation 
		JOINT Spine
		{
			OFFSET 15.7357 0.0 0.0
			CHANNELS 6 Xposition Yposition Zposition Zrotation Xrotation Yrotation 
			JOINT Chest
			{
				OFFSET 8.98455 -0.406207 0.0
				CHANNELS 6 Xposition Yposition Zposition Zrotation Xrotation Yrotation 
				JOINT Neck
				{
					OFFSET 16.3773 0.0 0.0
					CHANNELS 6 Xposition Yposition Zposition Zrotation Xrotation Yrotation 
					JOINT Head
					{
						OFFSET 6.45672 0.0 0.0
						CHANNELS 6 Xposition Yposition Zposition Zrotation Xrotation Yrotation 
						End Site
						{
							OFFSET 0.0 0.0 0.0
						}
					}
				}
				JOINT Shoulder_L
				{
					OFFSET 12.9942 -0.242716 4.98039
					CHANNELS 6 Xposition Yposition Zposition Zrotation Xrotation Yrotation 
					JOINT UpperArm_L
					{
						OFFSET 5.34809 0.0 0.0
						CHANNELS 6 Xposition Yposition Zposition Zrotation Xrotation Yrotation 
						JOINT LowerArm_L
						{
							OFFSET 24.3286 1.87007e-05 0.0
							CHANNELS 6 Xposition Yposition Zposition Zrotation Xrotation Yrotation 
							JOINT Hand_L
							{
								OFFSET 22.2916 0.0 0.0
								CHANNELS 6 Xposition Yposition Zposition Zrotation Xrotation Yrotation 
								End Site
								{
									OFFSET 0.0 0.0 0.0
								}
							}
						}
					}
				}
				JOINT Shoulder_R
				{
					OFFSET 12.9945 -0.242716 -4.98039
					CHANNELS 6 Xposition Yposition Zposition Zrotation Xrotation Yrotation 
					JOINT UpperArm_R
					{
						OFFSET -5.34813 0.0 0.0
						CHANNELS 6 Xposition Yposition Zposition Zrotation Xrotation Yrotation 
						JOINT LowerArm_R
						{
							OFFSET -24.3289 0.000322201 0.0
							CHANNELS 6 Xposition Yposition Zposition Zrotation Xrotation Yrotation 
							JOINT Hand_R
							{
								OFFSET -22.2915 -0.000108084 0.0
								CHANNELS 6 Xposition Yposition Zposition Zrotation Xrotation Yrotation 
								End Site
								{
									OFFSET 0.0 0.0 0.0
								}
							}
						}
					}
				}
			}
		}
		JOINT UpperLeg_L
		{
			OFFSET -2.19248 -6.46944 0.0
			CHANNELS 6 Xposition Yposition Zposition Zrotation Xrotation Yrotation 
			JOINT LowerLeg_L
			{
				OFFSET 39.0811 0.0 -1.23785e-05
				CHANNELS 6 Xposition Yposition Zposition Zrotation Xrotation Yrotation 
				JOINT Foot_L
				{
					OFFSET 40.9854 0.0 -1.26872e-05
					CHANNELS 6 Xposition Yposition Zposition Zrotation Xrotation Yrotation 
					JOINT Toes_L
					{
						OFFSET 11.7543 0.0 0.0
						CHANNELS 6 Xposition Yposition Zposition Zrotation Xrotation Yrotation 
						End Site
						{
							OFFSET 0.0 0.0 0.0
						}
					}
				}
			}
		}
		JOINT UpperLeg_R
		{
			OFFSET -2.19251 6.46944 0.0
			CHANNELS 6 Xposition Yposition Zposition Zrotation Xrotation Yrotation 
			JOINT LowerLeg_R
			{
				OFFSET -39.0811 -0.00228153 -0.0401928
				CHANNELS 6 Xposition Yposition Zposition Zrotation Xrotation Yrotation 
				JOINT Foot_R
				{
					OFFSET -40.9854 0.0 0.0
					CHANNELS 6 Xposition Yposition Zposition Zrotation Xrotation Yrotation 
					JOINT Toes_R
					{
						OFFSET -11.7543 0.0 0.0
						CHANNELS 6 Xposition Yposition Zposition Zrotation Xrotation Yrotation 
						End Site
						{
							OFFSET 0.0 0.0 0.0
						}
					}
				}
			}
		}
	}
}
MOTION
Frames:	4
Frame Time:	0.0333333
0.000000 0.000000 0.000000 0.000000 0.000000 -0.000000 -1.090900 92.017100 -2.331170 87.627600 -1.499880 5.629190 15.735700 0.000005 -0.000001 84.145900 84.158200 -83.504600 8.984550 -0.406207 -0.000000 3.864480 -1.211840 1.322160 16.377300 -0.000001 -0.000001 4.484140 -1.457320 1.962730 6.456720 -0.000001 -0.000000 2.713130 -0.186038 -2.096700 12.994200 -0.242716 4.980390 -90.254900 0.829945 -72.927700 5.348090 -0.000007 -0.000001 -63.852700 45.586300 -16.481400 24.328600 0.000019 0.000005 3.662670 7.157460 -27.191900 22.291600 -0.000001 0.000005 6.961350 5.644920 -14.548200 12.994500 -0.242716 -4.980390 87.855500 6.642540 -72.061900 -5.348130 -0.000001 -0.000004 -64.684500 33.963900 -15.474500 -24.328900 0.000322 -0.000009 0.518852 1.541180 -18.644000 -22.291500 -0.000108 -0.000004 4.763520 5.595400 -11.071100 -2.192480 -6.469440 -0.000000 -168.393000 -19.474400 -1.852930 39.081100 -0.000007 -0.000012 -0.175901 0.406476 23.400500 40.985400 -0.000006 -0.000013 -5.790070 0.726579 -63.438000 11.754300 -0.000000 0.000003 -0.000095 -0.000985 -16.615400 -2.192510 6.469440 -0.000001 173.437000 24.263200 -179.028000 -39.081100 -0.002282 -0.040193 -0.056986 0.163606 20.234400 -40.985400 0.000008 0.000006 -3.605830 4.071660 -62.808800 -11.754300 -0.000006 -0.000006 -0.003662 -0.047876 -18.520400
0.000000 0.000000 0.000000 0.000000 0.000000 -0.000000 -1.085720 92.010700 -2.361410 87.641700 -1.549200 5.702030 15.735700 0.000005 -0.000001 84.454700 84.144600 -83.846300 8.984550 -0.406207 -0.000000 3.897100 -1.150600 1.254500 16.377300 -0.000001 -0.000001 4.420420 -1.453530 2.004580 6.456720 -0.000001 -0.000000 2.595030 -0.214503 -2.108660 12.994200 -0.242716 4.980390 -90.228800 0.743389 -72.895200 5.348090 -0.000007 -0.000001 -62.501700 47.007300 -17.162900 24.328600 0.000019 0.000005 3.902440 7.393040 -27.929100 22.291600 -0.000001 0.000005 6.659030 5.646890 -14.724900 12.994500 -0.242716 -4.980390 87.872500 6.608850 -72.111200 -5.348130 -0.000001 -0.000004 -64.016700 33.614900 -16.070100 -24.328900 0.000322 -0.000009 0.525580 1.529750 -18.998700 -22.291500 -0.000108 -0.000004 4.604410 5.594420 -11.014500 -2.192480 -6.469440 -0.000000 -168.394000 -19.471300 -1.819750 39.081100 -0.000007 -0.000012 -0.176578 0.407032 23.452300 40.985400 -0.000006 -0.000013 -5.790350 0.664985 -63.447700 11.754300 -0.000000 0.000003 -0.000098 -0.001015 -16.616500 -2.192510 6.469440 -0.000001 173.387000 24.239200 -178.998000 -39.081100 -0.002282 -0.040193 -0.059763 0.170695 20.282900 -40.985400 0.000008 0.000006 -3.674640 4.124380 -62.801500 -11.754300 -0.000006 -0.000006 -0.003387 -0.044902 -18.399400
0.000000 0.000000 0.000000 0.000000 0.000000 -0.000000 -1.092150 92.009600 -2.393740 87.629600 -1.551260 5.797530 15.735700 0.000005 -0.000001 84.494900 84.130800 -83.907800 8.984550 -0.406207 -0.000000 3.924930 -1.144190 1.212010 16.377300 -0.000001 -0.000001 4.344130 -1.388220 2.020810 6.456720 -0.000001 -0.000000 2.592990 -0.194493 -2.058870 12.994200 -0.242716 4.980390 -90.203200 0.660708 -72.908700 5.348090 -0.000007 -0.000001 -60.701400 48.782200 -17.904700 24.328600 0.000019 0.000005 4.284860 7.674130 -29.295600 22.291600 -0.000001 0.000005 6.510850 5.649200 -14.942100 12.994500 -0.242716 -4.980390 87.904200 6.533700 -72.172100 -5.348130 -0.000001 -0.000004 -63.076700 32.923600 -16.877100 -24.328900 0.000322 -0.000009 0.562227 1.579320 -19.632400 -22.291500 -0.000108 -0.000004 4.606730 5.595310 -11.066100 -2.192480 -6.469440 -0.000000 -168.343000 -19.501200 -1.751450 39.081100 -0.000007 -0.000012 -0.176321 0.405952 23.477500 40.985400 -0.000006 -0.000013 -5.780060 0.697410 -63.434800 11.754300 -0.000000 0.000003 -0.000082 -0.000869 -16.611000 -2.192510 6.469440 -0.000001 173.382000 24.254700 -178.950000 -39.081100 -0.002282 -0.040193 -0.057487 0.164035 20.339900 -40.985400 0.000008 0.000006 -3.571320 4.107140 -62.816900 -11.754300 -0.000006 -0.000006 -0.003534 -0.046504 -18.464600
0.000000 0.000000 0.000000 0.000000 0.000000 -0.000000 -1.083200 92.007100 -2.428950 87.619700 -1.604890 5.901880 15.735700 0.000005 -0.000001 84.683100 84.118800 -84.119900 8.984550 -0.406207 -0.000000 3.952150 -1.107130 1.163380 16.377300 -0.000001 -0.000001 4.347860 -1.366700 2.039420 6.456720 -0.000001 -0.000000 2.430040 -0.215319 -2.056580 12.994200 -0.242716 4.980390 -90.188700 0.610594 -72.831300 5.348090 -0.000007 -0.000001 -57.547200 51.526800 -19.471600 24.328600 0.000019 0.000005 4.397230 7.277590 -31.259700 22.291600 -0.000001 0.000005 6.676230 5.654490 -15.461200 12.994500 -0.242716 -4.980390 87.930200 6.436210 -72.130300 -5.348130 -0.000001 -0.000004 -61.803300 31.847800 -17.967500 -24.328900 0.000322 -0.000009 0.624337 1.656870 -20.680100 -22.291500 -0.000108 -0.000004 4.728060 5.592360 -10.896000 -2.192480 -6.469440 -0.000000 -168.310000 -19.457900 -1.664750 39.081100 -0.000007 -0.000012 -0.175923 0.404403 23.510200 40.985400 -0.000006 -0.000013 -5.779500 0.660110 -63.449800 11.754300 -0.000000 0.000003 -0.000084 -0.000883 -16.611600 -2.192510 6.469440 -0.000001 173.342000 24.261400 -178.872000 -39.081100 -0.002282 -0.040193 -0.057799 0.164719 20.357500 -40.985400 0.000008 0.000006 -3.572890 4.191570 -62.795600 -11.754300 -0.000006 -0.000006 -0.003395 -0.044990 -18.402900
